HIERARCHY
ROOT hip
{
	OFFSET 0.000000 0.000000 0.000000 
	CHANNELS 6 Xposition Yposition Zposition Xrotation Zrotation Yrotation
	JOINT abdomen
	{
		OFFSET 0.000000 3.402643 0.000000 
		CHANNELS 3 Xrotation Zrotation Yrotation
		JOINT chest
		{
			OFFSET 0.000000 8.438565 -0.680529 
			CHANNELS 3 Xrotation Zrotation Yrotation
			JOINT neck
			{
				OFFSET 0.000000 10.207942 -0.272212 
				CHANNELS 3 Xrotation Zrotation Yrotation
				JOINT head
				{
					OFFSET 0.000000 3.130431 0.000000 
					CHANNELS 3 Xrotation Zrotation Yrotation
					End Site
					{
						OFFSET 0.000000 3.130435 0.000000 
					}
				}
			}
			JOINT lCollar
			{
				OFFSET 3.470700 6.669187 -0.816635 
				CHANNELS 3 Yrotation Zrotation Xrotation
				JOINT lShldr
				{
					OFFSET 3.198488 0.000000 0.000000 
					CHANNELS 3 Zrotation Yrotation Xrotation
					JOINT lForeArm
					{
						OFFSET 10.139888 0.000000 0.000000 
						CHANNELS 3 Yrotation Zrotation Xrotation
						JOINT lHand
						{
							OFFSET 8.370511 0.000000 0.000000 
							CHANNELS 3 Zrotation Yrotation Xrotation
							End Site
							{
								OFFSET 4.083176 0.000000 0.000000 
							}
						}
					}
				}
			}
			JOINT rCollar
			{
				OFFSET -3.470700 6.669187 -0.816635 
				CHANNELS 3 Yrotation Zrotation Xrotation
				JOINT rShldr
				{
					OFFSET -3.198488 0.000000 0.000000 
					CHANNELS 3 Zrotation Yrotation Xrotation
					JOINT rForeArm
					{
						OFFSET -10.139888 0.000000 0.000000 
						CHANNELS 3 Yrotation Zrotation Xrotation
						JOINT rHand
						{
							OFFSET -8.370511 0.000000 0.000000 
							CHANNELS 3 Zrotation Yrotation Xrotation
							End Site
							{
								OFFSET -4.083176 0.000000 0.000000 
							}
						}
					}
				}
			}
		}
	}
	JOINT lThigh
	{
		OFFSET 5.308129 -1.633274 1.361059 
		CHANNELS 3 Xrotation Zrotation Yrotation
		JOINT lShin
		{
			OFFSET -2.041588 -20.007561 0.000000 
			CHANNELS 3 Xrotation Zrotation Yrotation
			JOINT lFoot
			{
				OFFSET 0.000000 -19.190928 -1.224953 
				CHANNELS 3 Xrotation Yrotation Zrotation
				End Site
				{
					OFFSET 0.000000 -2.449906 4.627600 
				}
			}
		}
	}
	JOINT rThigh
	{
		OFFSET -5.308129 -1.633274 1.361059 
		CHANNELS 3 Xrotation Zrotation Yrotation
		JOINT rShin
		{
			OFFSET 2.041588 -20.007561 0.000000 
			CHANNELS 3 Xrotation Zrotation Yrotation
			JOINT rFoot
			{
				OFFSET 0.000000 -19.190928 -1.224953 
				CHANNELS 3 Xrotation Yrotation Zrotation
				End Site
				{
					OFFSET 0.000000 -2.449906 4.627600 
				}
			}
		}
	}
}
MOTION
Frames: 11
Frame Time: 0.016667
-0.396180 22.341660 -12.721378 -18.100943 -18.063240 6.820459 58.727871 21.428802 8.084849 -1.216171 -0.273026 5.996105 -13.488371 -3.190744 0.453469 4.528497 -0.813667 -39.516525 -6.746802 -10.349909 -0.536772 -45.981956 -31.772469 13.033458 -72.319969 -0.103468 -0.443682 -26.161802 -10.082871 28.810646 16.513300 9.374685 -0.486452 55.839695 13.720981 8.856776 48.221439 5.000000 12.198925 2.220833 6.682714 21.358149 -93.225060 23.896030 -14.577227 144.991776 9.962518 -5.191360 -42.016968 4.236815 -1.446571 -22.938025 -0.409347 -39.990299 144.990143 -8.115292 3.597833 -72.777519 -3.700982 -14.104180 
-0.397132 22.338812 -12.725176 -18.139008 -18.054626 6.789598 58.738262 21.403637 8.086631 -1.179513 -0.321795 5.947271 -13.596098 -3.160315 0.458728 4.561966 -0.783753 -39.496723 -6.697787 -10.330403 -0.535767 -45.954834 -31.856604 13.053455 -72.261398 -0.103973 -0.445261 -26.122679 -10.139405 28.863089 16.444605 9.335676 -0.484436 55.742317 14.087063 9.167202 47.878448 5.000000 12.541698 2.241172 6.577901 20.866512 -93.163589 23.915489 -14.596367 144.982056 9.967921 -5.207105 -42.027618 4.219921 -1.473589 -22.884218 -0.384349 -39.990101 144.988052 -8.089934 3.599029 -72.766815 -3.668545 -14.109981 
-0.399790 22.336535 -12.727261 -18.190027 -18.045649 6.768015 58.764359 21.367296 8.093050 -1.161385 -0.351059 5.908206 -13.674301 -3.169970 0.460189 4.601275 -0.761680 -39.447632 -6.650727 -10.329272 -0.547061 -45.932396 -31.933733 13.084055 -72.202843 -0.076584 -0.455796 -26.124760 -10.197796 28.863667 16.404873 9.257659 -0.480403 55.693916 14.435372 9.470162 47.501759 5.000000 12.868891 2.345427 6.537783 20.587961 -93.120613 23.935284 -14.596691 144.981064 9.962214 -5.214586 -42.044735 4.284361 -1.500592 -22.868418 -0.349060 -39.994549 144.978134 -8.075780 3.569945 -72.747177 -3.690863 -14.111382 
-0.403583 22.334639 -12.728208 -18.237875 -18.037024 6.737154 58.789864 21.333363 8.119107 -1.142709 -0.370573 5.869204 -13.743594 -3.216784 0.477131 4.650010 -0.739885 -39.369267 -6.592418 -10.358539 -0.548574 -45.937119 -31.999422 13.130459 -72.154060 -0.030535 -0.472103 -26.169468 -10.253754 28.817709 16.384516 9.160135 -0.475362 55.687355 14.764103 9.779635 47.107803 5.000000 13.193639 2.507046 6.519367 20.450617 -93.069550 23.944767 -14.612433 144.992096 9.972290 -5.217988 -42.083557 4.301286 -1.557319 -22.840843 -0.331308 -39.995918 144.988419 -8.075926 3.557334 -72.746857 -3.693283 -14.115186 
-0.406619 22.332930 -12.729345 -18.282324 -18.027683 6.727875 58.802750 21.305994 8.134876 -1.133266 -0.380335 5.830142 -13.792829 -3.265061 0.484433 4.705115 -0.725495 -39.300659 -6.551864 -10.388916 -0.538782 -45.938370 -32.046837 13.185826 -72.115013 0.024872 -0.491206 -26.202488 -10.302109 28.777241 16.365660 9.059861 -0.479571 55.690849 15.066965 10.072481 46.728523 5.000000 13.493785 2.653840 6.486441 20.321867 -93.019211 23.944523 -14.627989 144.993103 9.977778 -5.210422 -42.111904 4.330085 -1.579091 -22.806814 -0.307303 -39.986794 144.986359 -8.050571 3.558541 -72.736877 -3.685001 -14.115365 
-0.406618 22.331980 -12.731245 -18.279917 -18.008287 6.724855 58.762058 21.319538 8.134867 -1.135316 -0.419343 5.820375 -13.832554 -3.342304 0.496115 4.738728 -0.695461 -39.280888 -6.581632 -10.437678 -0.541294 -45.929054 -32.044830 13.224038 -72.124748 0.099317 -0.514908 -26.251816 -10.303388 28.775211 16.374929 9.001346 -0.476546 55.710094 15.301613 10.308094 46.405884 5.000000 13.728044 2.735563 6.384314 20.205326 -92.993065 23.905699 -14.648013 144.983337 9.977824 -5.205978 -42.120522 4.361170 -1.599750 -22.821171 -0.331217 -39.995083 144.985626 -8.046053 3.570466 -72.757324 -3.657067 -14.104673 
-0.406617 22.331032 -12.733145 -18.280682 -17.988533 6.734139 58.719971 21.324018 8.127866 -1.127011 -0.448604 5.810607 -13.872293 -3.419547 0.507795 4.772362 -0.665410 -39.261009 -6.601636 -10.486438 -0.545583 -45.921566 -32.049309 13.269408 -72.144211 0.173871 -0.538275 -26.292446 -10.309375 28.771454 16.374353 8.933080 -0.473016 55.729969 15.536139 10.543856 46.082813 5.000000 13.960876 2.829246 6.288863 20.078844 -92.966927 23.865984 -14.667203 144.984924 9.979102 -5.165116 -42.112862 4.318381 -1.675086 -22.820208 -0.340035 -39.993763 144.984024 -8.026331 3.572467 -72.767502 -3.663253 -14.101789 
-0.408138 22.328566 -12.735801 -18.263376 -17.979544 6.715577 58.675335 21.322508 8.147859 -1.119022 -0.477848 5.859432 -13.931993 -3.476016 0.526193 4.788194 -0.673065 -39.251354 -6.611591 -10.505941 -0.546590 -45.941872 -32.074036 13.333696 -72.144157 0.220347 -0.553251 -26.237600 -10.370858 28.828825 16.353029 8.896824 -0.461742 55.775970 15.705832 10.733335 45.827366 5.000000 14.085235 2.916143 6.173763 20.116693 -92.978264 23.856405 -14.669592 144.975403 9.983793 -5.167182 -42.103813 4.302253 -1.702468 -22.847784 -0.357771 -39.992393 144.985626 -8.046054 3.570459 -72.798851 -3.646734 -14.081063 
-0.410038 22.325716 -12.738649 -18.246078 -17.970554 6.693997 58.641212 21.318644 8.169222 -1.111063 -0.507090 5.898491 -14.000800 -3.524292 0.533492 4.804255 -0.680532 -39.261127 -6.631314 -10.525448 -0.547598 -45.965763 -32.116982 13.394211 -72.144127 0.248233 -0.562236 -26.164589 -10.446096 28.904743 16.333260 8.867568 -0.460228 55.828117 15.870737 10.901799 45.587936 5.000000 14.184941 3.000164 6.069565 20.183430 -92.977371 23.856358 -14.660222 144.964966 9.983561 -5.181451 -42.122997 4.312241 -1.692438 -22.877293 -0.357904 -39.993649 144.986130 -8.055946 3.578138 -72.857857 -3.661383 -14.085361 
-0.413837 22.322868 -12.741117 -18.229982 -17.971262 6.672417 58.596413 21.294353 8.186056 -1.112374 -0.526579 5.937550 -14.051287 -3.569641 0.560064 4.816616 -0.695654 -39.261360 -6.631409 -10.535200 -0.548102 -46.002041 -32.137688 13.456268 -72.153831 0.285520 -0.573888 -26.132917 -10.502314 28.949924 16.353765 8.806305 -0.466460 55.909050 15.967922 11.040001 45.384640 5.000000 14.224375 3.108143 5.977284 20.242502 -93.019768 23.856590 -14.674068 144.976196 9.985588 -5.170367 -42.074535 4.301645 -1.728633 -22.907757 -0.349238 -39.996220 144.985825 -8.055892 3.587179 -72.896164 -3.646327 -14.097383 
-0.420484 22.320023 -12.743013 -18.194355 -17.971964 6.653851 58.545998 21.285189 8.207511 -1.121175 -0.507071 5.937552 -14.093472 -3.631370 0.609443 4.819333 -0.710678 -39.271244 -6.621643 -10.535200 -0.548102 -46.071266 -32.125134 13.517877 -72.153770 0.322702 -0.585862 -26.162340 -10.563245 28.940010 16.431330 8.738025 -0.462924 56.024277 15.992876 11.121160 45.223499 5.000000 14.180455 3.259199 5.910162 20.325390 -93.078896 23.846989 -14.745969 144.994614 9.978277 -5.164798 -42.055775 4.287714 -1.802929 -22.943525 -0.316723 -39.991367 144.975800 -8.036329 3.547504 -72.928223 -3.624684 -14.068248 
